<svg xmlns="http://www.w3.org/2000/svg" width="59" height="58" fill="none"><circle cx="29.852" cy="29.004" r="29" fill="#fff"/><path fill="#1B1B1B" fill-rule="evenodd" d="M29.912 43.262h-.006c-2.416-.001-4.79-.605-6.9-1.75l-7.654 1.999 2.048-7.448a14.298 14.298 0 0 1-1.927-7.186c.003-7.925 6.48-14.373 14.44-14.373a14.38 14.38 0 0 1 10.213 4.215 14.254 14.254 0 0 1 4.226 10.169c-.004 7.923-6.479 14.37-14.44 14.374Zm-6.554-4.351.439.259a12.026 12.026 0 0 0 6.108 1.665h.005c6.615 0 11.999-5.36 12.001-11.947a11.847 11.847 0 0 0-3.512-8.452 11.947 11.947 0 0 0-8.484-3.504c-6.62 0-12.004 5.36-12.007 11.946 0 2.258.634 4.456 1.835 6.358l.286.452-1.213 4.409 4.542-1.186Zm13.834-6.605c-.09-.15-.331-.24-.692-.42-.36-.18-2.135-1.049-2.465-1.168-.33-.12-.571-.18-.812.18-.24.359-.932 1.168-1.142 1.408-.21.24-.421.27-.782.09-.36-.18-1.523-.56-2.901-1.783-1.073-.953-1.797-2.129-2.008-2.488-.21-.36-.022-.554.159-.733.162-.161.36-.42.54-.63.181-.21.241-.359.362-.599.12-.24.06-.449-.03-.629s-.812-1.947-1.113-2.666c-.293-.7-.59-.606-.812-.617a14.41 14.41 0 0 0-.691-.013c-.24 0-.631.09-.962.45-.33.36-1.263 1.228-1.263 2.996s1.293 3.476 1.473 3.715c.18.24 2.544 3.867 6.164 5.423.86.37 1.532.591 2.056.757.865.273 1.651.235 2.273.142.693-.103 2.135-.869 2.435-1.708.3-.839.3-1.558.21-1.707Z" clip-rule="evenodd"/></svg>