<svg xmlns="http://www.w3.org/2000/svg" width="59" height="58" fill="none"><circle cx="29.852" cy="29.004" r="29" fill="#fff"/><path fill="#1B1B1B" fill-rule="evenodd" d="M16.345 28.32c7.184-3.12 11.966-5.193 14.368-6.2 6.834-2.852 8.271-3.345 9.195-3.365.205 0 .656.04.964.287.246.205.308.472.35.677.04.206.081.637.04.965-.37 3.9-1.97 13.362-2.791 17.713-.35 1.847-1.026 2.463-1.683 2.524-1.437.124-2.525-.944-3.9-1.847-2.175-1.416-3.386-2.299-5.5-3.694-2.443-1.601-.863-2.484.533-3.92.37-.37 6.67-6.117 6.794-6.63.02-.061.02-.308-.123-.43-.144-.124-.35-.083-.513-.042-.226.041-3.674 2.34-10.386 6.876-.985.677-1.868 1.005-2.668.985-.883-.02-2.566-.493-3.838-.903-1.54-.493-2.77-.76-2.668-1.621.061-.452.677-.904 1.826-1.376Z" clip-rule="evenodd"/></svg>